<?xml version="1.0" encoding="iso-8859-1"?>
<!-- Generator: Adobe Illustrator 19.0.0, SVG Export Plug-In . SVG Version: 6.00 Build 0)  -->
<svg version="1.1" id="Capa_1" xmlns="http://www.w3.org/2000/svg" xmlns:xlink="http://www.w3.org/1999/xlink" x="0px" y="0px"
	 viewBox="0 0 512 512" style="enable-background:new 0 0 512 512;" xml:space="preserve">
<circle style="fill:#005ECE;" cx="256" cy="256" r="256"/>
<path style="fill:#00479B;" d="M512,256c0-11.07-0.703-21.976-2.067-32.676l-82.29-82.29
	c-12.132-14.169-32.841-21.615-60.466-21.615c-11.488,0-24.019,1.3-37.31,3.869C311.84,75.951,285.141,48.974,256,48.974
	c-29.076,0-55.846,27.01-73.869,74.317c-13.291-2.569-25.815-3.869-37.311-3.869c-31.224,0-53.623,9.507-64.772,27.492
	c-16.385,26.429-5.474,65.995,29.894,109.09C74.574,299.1,63.663,338.661,80.046,365.087c2.231,3.597,4.917,6.85,8.028,9.76
	l-0.149,0.105l134.914,134.914C233.695,511.27,244.762,512,256,512C397.384,512,512,397.385,512,256z"/>
<path style="fill:#FFFFFF;" d="M402.057,256.01c4.73-5.778,9.096-11.583,13.045-17.387c24.875-36.547,30.86-69.117,16.853-91.71
	c-15.32-24.71-52.384-33.225-102.083-23.622c-1.528-4.003-3.129-7.898-4.805-11.67C307.111,71.223,282.583,48.974,256,48.974
	c-29.075,0-55.844,27.011-73.867,74.315c-4.207-0.81-8.361-1.503-12.449-2.066c-43.798-6.028-75.63,3.096-89.637,25.69
	c-16.384,26.428-5.473,65.991,29.892,109.085c-4.728,5.776-9.091,11.579-13.039,17.38c-24.875,36.547-30.86,69.117-16.853,91.71
	c11.197,18.059,34.039,27.475,64.943,27.475c11.347,0,23.794-1.286,37.137-3.863c1.529,4.007,3.131,7.906,4.808,11.681
	c17.954,40.396,42.483,62.644,69.065,62.644c29.073,0,55.844-27.015,73.866-74.315c4.207,0.81,8.362,1.504,12.452,2.066
	c8.811,1.212,17.134,1.811,24.928,1.811c30.952,0,53.52-9.453,64.709-27.501C448.308,338.708,437.392,299.09,402.057,256.01z
	 M420.602,153.951c10.898,17.577,4.868,45.7-16.541,77.156c-13.355,19.623-31.657,39.319-53.517,57.846
	c0.778-10.799,1.178-21.792,1.178-32.953c0-11.136-0.403-22.135-1.181-32.926c5.946,5.049,11.667,10.208,17.134,15.475l9.267-9.619
	c-8.792-8.47-18.198-16.677-28.157-24.58c-2.844-24.528-7.716-47.636-14.425-68.304
	C376.726,128.253,408.727,134.795,420.602,153.951z M173.635,256c0-15.223,0.751-30.121,2.237-44.601
	c11.503-8.868,23.798-17.387,36.727-25.403c14.23-8.822,28.838-16.758,43.443-23.65c14.47,6.843,29.017,14.759,43.358,23.65
	c12.932,8.017,25.2,16.509,36.728,25.405c1.475,14.448,2.237,29.385,2.237,44.599c0,15.223-0.751,30.121-2.237,44.601
	c-11.503,8.868-23.798,17.387-36.727,25.403c-14.23,8.822-28.838,16.757-43.444,23.65c-14.471-6.843-29.017-14.759-43.359-23.65
	c-12.93-8.017-25.199-16.508-36.727-25.405C174.397,286.15,173.635,271.212,173.635,256z M256,62.33
	c20.681,0,41.406,19.942,56.861,54.715c9.64,21.69,16.737,47.624,20.963,75.963c-8.77-6.353-17.904-12.485-27.386-18.364
	c-11.402-7.069-22.945-13.546-34.493-19.383c10.305-4.321,20.541-8.096,30.572-11.235l-3.989-12.747
	c-13.909,4.352-28.182,9.864-42.488,16.355c-20.67-9.39-41.159-16.638-60.701-21.442C211.039,86.076,233.46,62.33,256,62.33z
	 M91.398,153.951c10.898-17.577,38.765-24.684,76.464-19.496c22.52,3.099,47.12,10.228,72.277,20.787
	c-11.646,5.875-23.231,12.369-34.576,19.403c-9.465,5.868-18.603,12.008-27.365,18.355c1.257-8.37,2.765-16.581,4.537-24.604
	l-13.042-2.881c-2.771,12.546-4.933,25.519-6.485,38.843c-16.654,13.206-31.623,27.135-44.416,41.341
	C88.875,208.541,78.614,174.57,91.398,153.951z M91.398,358.049c-10.898-17.577-4.868-45.7,16.541-77.156
	c4.606-6.767,9.808-13.542,15.534-20.276c0.175-0.183,0.335-0.373,0.485-0.57c10.77-12.599,23.391-25.042,37.5-36.999
	c-0.779,10.798-1.179,21.791-1.179,32.952c0,11.135,0.403,22.135,1.18,32.925c-5.946-5.049-11.668-10.208-17.134-15.475l-9.267,9.62
	c8.794,8.471,18.199,16.677,28.158,24.58c2.844,24.528,7.716,47.637,14.425,68.305C135.287,383.747,103.264,377.187,91.398,358.049z
	 M256,449.67c-20.681,0-41.406-19.942-56.861-54.715c-9.64-21.69-16.737-47.624-20.963-75.963
	c8.771,6.354,17.906,12.486,27.386,18.364c11.402,7.069,22.945,13.545,34.493,19.383c-10.305,4.321-20.54,8.096-30.572,11.235
	l3.989,12.747c13.909-4.352,28.182-9.864,42.487-16.354c20.67,9.39,41.159,16.638,60.701,21.442
	C300.962,425.922,278.536,449.67,256,449.67z M420.602,358.049c-10.898,17.577-38.766,24.684-76.464,19.496
	c-22.52-3.099-47.12-10.228-72.277-20.787c11.646-5.875,23.231-12.369,34.577-19.403c9.465-5.868,18.603-12.008,27.365-18.355
	c-1.257,8.37-2.765,16.581-4.537,24.603l13.042,2.881c2.77-12.545,4.932-25.519,6.483-38.842
	c16.654-13.206,31.623-27.135,44.417-41.341C423.098,303.441,433.357,337.476,420.602,358.049z"/>
<path style="fill:#FF3501;" d="M297.067,215.175c-22.78-12.022-41.067,9.127-41.067,9.127s-18.287-21.149-41.067-9.126
	c-16.426,8.67-25.779,39.658,0,63.882c26.465,24.867,41.067,31.94,41.067,31.94s14.602-7.072,41.067-31.941
	C322.846,254.832,313.493,223.845,297.067,215.175z"/>
<path style="fill:#C70024;" d="M297.067,279.057C270.602,303.924,256,310.998,256,310.998v-86.696c0,0,18.287-21.149,41.067-9.126
	C313.493,223.845,322.846,254.832,297.067,279.057z"/>
<g>
</g>
<g>
</g>
<g>
</g>
<g>
</g>
<g>
</g>
<g>
</g>
<g>
</g>
<g>
</g>
<g>
</g>
<g>
</g>
<g>
</g>
<g>
</g>
<g>
</g>
<g>
</g>
<g>
</g>
</svg>
